<?xml version="1.0" encoding="UTF-8" standalone="no"?>
<svg
   width="512"
   height="512"
   viewBox="0 0 135.46666 135.46667"
   version="1.1"
   id="svg8"
   inkscape:version="1.3.2 (1:1.3.2+202311252150+091e20ef0f)"
   xml:space="preserve"
   sodipodi:docname="icon.svg"
   inkscape:export-filename="src/assets/icon.png"
   inkscape:export-xdpi="96"
   inkscape:export-ydpi="96"
   xmlns:inkscape="http://www.inkscape.org/namespaces/inkscape"
   xmlns:sodipodi="http://sodipodi.sourceforge.net/DTD/sodipodi-0.dtd"
   xmlns="http://www.w3.org/2000/svg"
   xmlns:svg="http://www.w3.org/2000/svg"
   xmlns:rdf="http://www.w3.org/1999/02/22-rdf-syntax-ns#"
   xmlns:cc="http://creativecommons.org/ns#"
   xmlns:dc="http://purl.org/dc/elements/1.1/"><defs
     id="defs2" /><sodipodi:namedview
     id="base"
     pagecolor="#ffffff"
     bordercolor="#666666"
     borderopacity="1.0"
     inkscape:pageopacity="0.0"
     inkscape:pageshadow="2"
     inkscape:zoom="0.67583231"
     inkscape:cx="155.36398"
     inkscape:cy="301.1102"
     inkscape:document-units="px"
     inkscape:current-layer="layer1"
     inkscape:document-rotation="0"
     showgrid="true"
     units="px"
     inkscape:showpageshadow="2"
     inkscape:pagecheckerboard="0"
     inkscape:deskcolor="#d1d1d1"
     inkscape:window-width="1366"
     inkscape:window-height="732"
     inkscape:window-x="0"
     inkscape:window-y="0"
     inkscape:window-maximized="1"><inkscape:grid
       id="grid1"
       units="px"
       originx="29.448145"
       originy="31.115883"
       spacingx="2.6458333"
       spacingy="2.6458334"
       empcolor="#3f3fff"
       empopacity="0.25098039"
       color="#3f3fff"
       opacity="0.1254902"
       empspacing="5"
       dotted="false"
       gridanglex="30"
       gridanglez="30"
       visible="true" /></sodipodi:namedview><metadata
     id="metadata5"><rdf:RDF><cc:Work
         rdf:about=""><dc:format>image/svg+xml</dc:format><dc:type
           rdf:resource="http://purl.org/dc/dcmitype/StillImage" /></cc:Work></rdf:RDF></metadata><g
     inkscape:label="Слой 1"
     inkscape:groupmode="layer"
     id="layer1"
     transform="translate(29.448145,31.115882)"><rect
       style="fill:#3e58ff;fill-opacity:1;stroke:none;stroke-width:0.246168;stroke-opacity:1"
       id="rect1"
       width="135.2205"
       height="135.2205"
       x="-29.325069"
       y="-30.992798"
       rx="13.229166"
       ry="13.229166" /><path
       id="path5-5"
       style="fill:#ffffff;fill-opacity:1;stroke-width:0.759804"
       d="M -7.845542,-14.182549 C -9.2223203,-13.802069 -10.39684,-13.09609 -11.343336,-12.023665 -12.110898,-10.887032 -12.684046,-9.5385459 -12.469272,-8.1254329 -12.469272,13.979349 -12.469272,36.084135 -12.469272,58.188915 -11.969136,59.991987 -10.840228,61.690396 -9.0352663,62.373551 -6.6266262,63.31583 -3.958692,62.695296 -1.431189,62.870506 8.6058192,62.862607 18.642829,62.854707 28.679847,62.846811 30.973651,59.130471 33.26746,55.414128 35.561264,51.697783 31.659072,47.531086 27.756882,43.364387 23.85469,39.197689 27.575214,34.80156 31.295749,30.405431 35.016282,26.009303 31.774342,22.603391 28.714123,19.010831 25.355752,15.724476 23.988941,14.293536 21.607563,14.438445 20.09064,15.57921 18.064043,17.593142 16.369994,20.005509 14.471999,22.173517 7.6360479,30.422765 0.79986717,38.671827 -6.036257,46.920925 -6.0751839,29.300536 -6.1143193,11.680147 -6.1536553,-5.9402399 -5.7566634,-7.266958 -4.4767559,-8.1232889 -3.0947497,-7.8500419 8.9770374,-7.8500419 21.048827,-7.8500419 33.120615,-7.8500419 31.569545,-9.9608779 30.01849,-12.071713 28.46742,-14.182549 16.363102,-14.182549 4.2587741,-14.182549 -7.845542,-14.182549 Z" /><path
       style="fill:none;stroke:#ffffff;stroke-width:3.21651;stroke-linecap:round;stroke-linejoin:miter;stroke-dasharray:none;stroke-opacity:1"
       d="M 27.44419,-12.185978 35.573106,-2.2912591 26.764539,10.3067 37.002206,24.027933 24.408462,38.908149 34.542316,50.346264 27.868898,61.015267"
       id="path6-8"
       sodipodi:nodetypes="ccccccc" /><path
       style="fill:none;stroke:#ffffff;stroke-width:3.21651;stroke-linecap:round;stroke-linejoin:miter;stroke-dasharray:none;stroke-opacity:1"
       d="M 43.774991,-11.974099 49.291991,-4.0077048 39.321109,10.608214 49.558767,24.329439 36.965032,39.209664 49.596148,52.522205 43.84283,61.399797"
       id="path6-5-6"
       sodipodi:nodetypes="ccccccc" /><path
       id="path5-8-2"
       style="fill:#ffffff;fill-opacity:1;stroke-width:0.759804"
       d="M 40.129542,-13.945862 C 41.680605,-11.835025 43.231658,-9.7241909 44.782721,-7.6133548 56.888358,-7.6133548 68.993993,-7.6133548 81.099626,-7.6133548 82.024119,-6.9327417 82.855236,-6.1556592 82.734957,-4.9128438 82.697212,12.454048 82.659263,29.820945 82.621115,47.187838 75.801711,39.850072 68.982194,32.51241 62.162567,25.174846 60.879907,24.24644 59.16046,24.368798 58.009036,25.448918 56.04201,26.879702 54.438161,29.009006 52.093364,29.778563 50.381949,29.996303 48.916466,28.938326 47.948802,27.617726 47.133826,26.342145 46.340533,26.03657 45.587576,27.534869 42.230646,31.501368 38.873726,35.467869 35.516796,39.434367 39.418988,43.601064 43.321187,47.767766 47.223379,51.934463 44.929575,55.650808 42.635764,59.367152 40.34196,63.083493 55.105118,63.072275 69.868275,63.060695 84.631434,63.049332 85.888471,62.549246 87.114806,62.006411 87.892046,60.841815 89.005973,59.57629 89.168633,57.800993 89.054132,56.174224 89.054132,34.275095 89.054132,12.375962 89.054132,-9.5231639 88.554098,-10.780252 88.01111,-12.006423 86.846706,-12.783869 85.581224,-13.897745 83.805768,-14.060295 82.179033,-13.945862 68.162536,-13.945862 54.146037,-13.945862 40.129542,-13.945862 Z M 66.639071,-1.1501068 C 64.983936,-1.0044082 63.367523,-0.73125298 61.949206,0.19094272 60.58692,0.77834552 59.557481,2.0143609 58.668732,3.1509815 57.874651,4.6360044 57.127749,6.1355587 57.104475,7.8556868 56.979067,9.6278522 57.337545,11.45986 58.278691,12.990539 58.857318,14.435206 60.13237,15.511691 61.320885,16.440231 62.815112,17.245923 64.327535,17.993138 66.059884,18.029381 68.880542,18.135987 71.80938,17.074437 73.666607,14.901268 74.830643,13.843311 75.405027,12.244773 75.93617,10.811404 76.313312,9.0245726 76.29601,7.1474175 75.719977,5.4182549 75.036644,3.8927452 74.326872,2.3861611 72.971406,1.340878 71.990223,0.23500852 70.460515,-0.18805988 69.167146,-0.80230038 68.324485,-0.91845278 67.481783,-1.0343299 66.639071,-1.1501068 Z" /><path
       style="fill:#ffffff;fill-opacity:1;stroke-width:0.759804"
       d="M 22.84832,86.555303 22.822701,82.505967 17.1338,82.539458 11.444917,82.572936 11.429199,79.374509 11.413491,76.176087 17.095441,76.142778 22.777385,76.10946 22.75535,72.058718 22.733317,68.007981 28.417635,73.620762 34.101962,79.233546 28.487965,84.919086 22.873972,90.604642 Z"
       id="path14" /><path
       style="fill:#ffffff;fill-opacity:1;stroke-width:0.759804"
       d="M 58.475276,82.459277 52.793325,82.492594 52.815358,86.543333 52.837401,90.594081 47.153074,84.98128 41.468755,79.36851 47.082745,73.682961 52.696736,67.997427 52.722388,72.046757 52.748017,76.096087 58.436904,76.062604 64.125809,76.029117 64.141512,79.227543 64.157225,82.425967 Z"
       id="path13-8" /></g></svg>
