<?xml version="1.0" encoding="UTF-8" standalone="no"?>
<svg
   width="512"
   height="512"
   viewBox="0 0 135.46666 135.46667"
   version="1.1"
   id="svg8"
   inkscape:version="1.3.2 (1:1.3.2+202311252150+091e20ef0f)"
   xml:space="preserve"
   sodipodi:docname="welcom.svg"
   inkscape:export-filename="src/assets/welcom.svg"
   inkscape:export-xdpi="37.5"
   inkscape:export-ydpi="37.5"
   xmlns:inkscape="http://www.inkscape.org/namespaces/inkscape"
   xmlns:sodipodi="http://sodipodi.sourceforge.net/DTD/sodipodi-0.dtd"
   xmlns="http://www.w3.org/2000/svg"
   xmlns:svg="http://www.w3.org/2000/svg"
   xmlns:rdf="http://www.w3.org/1999/02/22-rdf-syntax-ns#"
   xmlns:cc="http://creativecommons.org/ns#"
   xmlns:dc="http://purl.org/dc/elements/1.1/"><defs
     id="defs2" /><sodipodi:namedview
     id="base"
     pagecolor="#ffffff"
     bordercolor="#666666"
     borderopacity="1.0"
     inkscape:pageopacity="0.0"
     inkscape:pageshadow="2"
     inkscape:zoom="0.67583231"
     inkscape:cx="11.837256"
     inkscape:cy="246.36289"
     inkscape:document-units="px"
     inkscape:current-layer="layer1"
     inkscape:document-rotation="0"
     showgrid="true"
     units="px"
     inkscape:showpageshadow="2"
     inkscape:pagecheckerboard="0"
     inkscape:deskcolor="#d1d1d1"
     inkscape:window-width="1366"
     inkscape:window-height="732"
     inkscape:window-x="0"
     inkscape:window-y="0"
     inkscape:window-maximized="1"><inkscape:grid
       id="grid1"
       units="px"
       originx="29.448145"
       originy="31.115883"
       spacingx="2.6458333"
       spacingy="2.6458334"
       empcolor="#3f3fff"
       empopacity="0.25098039"
       color="#3f3fff"
       opacity="0.1254902"
       empspacing="5"
       dotted="false"
       gridanglex="30"
       gridanglez="30"
       visible="true" /></sodipodi:namedview><metadata
     id="metadata5"><rdf:RDF><cc:Work
         rdf:about=""><dc:format>image/svg+xml</dc:format><dc:type
           rdf:resource="http://purl.org/dc/dcmitype/StillImage" /></cc:Work></rdf:RDF></metadata><g
     inkscape:label="Слой 1"
     inkscape:groupmode="layer"
     id="layer1"
     transform="translate(29.448145,31.115882)"><path
       id="path5-5"
       style="fill:#5a7aff;fill-opacity:1;stroke-width:0.948994"
       d="M -18.827751,-27.75149 C -20.547335,-27.276273 -22.014311,-26.394507 -23.196474,-25.055051 C -24.155157,-23.635402 -24.871014,-21.951148 -24.60277,-20.186175 C -24.60277,7.4226186 -24.60277,35.031413 -24.60277,62.640205 C -23.978099,64.892235 -22.568097,67.013541 -20.313707,67.866799 C -17.305329,69.043703 -13.97309,68.268657 -10.816247,68.487495 C 1.7199335,68.477629 14.256116,68.467763 26.792298,68.457901 C 29.657254,63.816203 32.522208,59.174505 35.387166,54.532805 C 30.513344,49.328615 25.639522,44.124423 20.765698,38.920233 C 25.412626,33.429485 30.059554,27.938735 34.70648,22.447987 C 30.657314,18.194015 26.835114,13.706921 22.640524,9.6022766 C 20.933378,7.8150367 17.959054,7.9960266 16.064422,9.4208386 C 13.533214,11.936234 11.417354,14.949271 9.0467615,17.657105 C 0.50869154,27.960385 -8.029664,38.263433 -16.567959,48.566527 C -16.616583,26.558723 -16.665459,4.5509226 -16.714588,-17.456877 C -16.218748,-19.113942 -14.620153,-20.183497 -12.894027,-19.842212 C 2.1835815,-19.842212 17.261192,-19.842212 32.3388,-19.842212 C 30.401526,-22.478638 28.464258,-25.115064 26.526986,-27.75149 C 11.40874,-27.75149 -3.7095045,-27.75149 -18.827751,-27.75149 Z" /><path
       style="fill:none;stroke:#5a7aff;stroke-width:4.0174;stroke-linecap:round;stroke-linejoin:miter;stroke-dasharray:none;stroke-opacity:1"
       d="M 25.248968,-25.25778 L 35.401952,-12.899313 L 24.400092,2.8354926 L 37.186888,19.973261 L 21.457364,38.558599 L 34.1145,52.844761 L 25.779428,66.170307"
       id="path6-8"
       sodipodi:nodetypes="ccccccc" /><path
       style="fill:none;stroke:#5a7aff;stroke-width:4.0174;stroke-linecap:round;stroke-linejoin:miter;stroke-dasharray:none;stroke-opacity:1"
       d="M 45.646074,-24.993143 L 52.53678,-15.043148 L 40.08319,3.2120826 L 52.869984,20.349841 L 37.140466,38.935189 L 52.916668,55.562503 L 45.730798,66.650585"
       id="path6-5-6"
       sodipodi:nodetypes="ccccccc" /><path
       id="path5-8-2"
       style="fill:#5a7aff;fill-opacity:1;stroke-width:0.948994"
       d="M 41.092922,-27.455869 C 43.030188,-24.819442 44.967456,-22.183017 46.904722,-19.546591 C 62.02461,-19.546591 77.144494,-19.546591 92.264378,-19.546591 C 93.419064,-18.696509 94.457126,-17.725935 94.3069,-16.173663 C 94.259756,5.5175227 94.212358,27.208713 94.16471,48.899899 C 85.647304,39.735057 77.129758,30.570341 68.612074,21.405755 C 67.010036,20.246177 64.862456,20.399001 63.424332,21.748067 C 60.967524,23.535111 58.964324,26.194603 56.035686,27.155779 C 53.898128,27.427737 52.067754,26.106325 50.859144,24.456901 C 49.841242,22.863705 48.850422,22.482043 47.909984,24.353413 C 43.717196,29.307557 39.524412,34.261701 35.331624,39.215843 C 40.205446,44.420033 45.079268,49.624227 49.953092,54.828417 C 47.08814,59.470117 44.223184,64.111817 41.358232,68.753515 C 59.79735,68.739503 78.23647,68.725041 96.67559,68.710847 C 98.245624,68.086241 99.777313,67.408243 100.74808,65.953665 C 102.13937,64.373031 102.34253,62.155691 102.19952,60.123863 C 102.19952,32.771931 102.19952,5.4199946 102.19952,-21.931935 C 101.57498,-23.502035 100.89679,-25.033517 99.442454,-26.004544 C 97.861874,-27.395771 95.644338,-27.598794 93.612552,-27.455869 C 76.106008,-27.455869 58.599466,-27.455869 41.092922,-27.455869 Z M 74.203208,-11.474018 C 72.135952,-11.292041 70.117058,-10.950871 68.345588,-9.7990513 C 66.644098,-9.0653876 65.358332,-7.5216085 64.248288,-6.1019734 C 63.256484,-4.2471853 62.323608,-2.3742474 62.29454,-0.22581348 C 62.137904,1.9876145 62.585642,4.2757867 63.761128,6.1875986 C 64.483832,7.9919826 66.076366,9.3365086 67.560818,10.496253 C 69.4271,11.502559 71.31611,12.435826 73.479806,12.481094 C 77.002794,12.614246 80.6609,11.288373 82.98057,8.5740926 C 84.434444,7.2527087 85.151848,5.2561386 85.815244,3.4658666 C 86.286292,1.2341204 86.264682,-1.1104394 85.54522,-3.2701573 C 84.691738,-5.1755134 83.805238,-7.0572309 82.112266,-8.3627862 C 80.886772,-9.7440133 78.976174,-10.272425 77.360762,-11.039609 C 76.308282,-11.184683 75.255752,-11.329413 74.203208,-11.474018 Z" /><path
       style="fill:#5a7aff;fill-opacity:1;stroke-width:0.948994"
       d="M 19.508756,98.069719 L 19.476748,93.012113 L 12.371346,93.053943 L 5.2659476,93.095757 L 5.2463236,89.100935 L 5.2266976,85.106115 L 12.323428,85.064515 L 19.42015,85.022899 L 19.392628,79.963537 L 19.365116,74.904183 L 26.464798,81.914525 L 33.5645,88.924871 L 26.552638,96.026089 L 19.540794,103.12733 Z"
       id="path14" /><path
       style="fill:#5a7aff;fill-opacity:1;stroke-width:0.948994"
       d="M 64.006662,92.953797 L 56.909934,92.995409 L 56.937456,98.054765 L 56.964978,103.11414 L 49.865286,96.103773 L 42.765596,89.093441 L 49.777446,81.992211 L 56.78929,74.891001 L 56.821328,79.948599 L 56.853346,85.006197 L 63.958738,84.964377 L 71.064154,84.922553 L 71.083768,88.917373 L 71.103392,92.912193 Z"
       id="path13-8" /></g></svg>
